<?xml version="1.0" standalone="no"?>
<!DOCTYPE svg PUBLIC "-//W3C//DTD SVG 20010904//EN"
 "http://www.w3.org/TR/2001/REC-SVG-20010904/DTD/svg10.dtd">
<svg version="1.0" xmlns="http://www.w3.org/2000/svg"
 width="240.000000pt" height="240.000000pt" viewBox="0 0 240.000000 240.000000"
 preserveAspectRatio="xMidYMid meet">

<g transform="translate(0.000000,240.000000) scale(0.100000,-0.100000)"
fill="#000000" stroke="none">
<path d="M1134 1781 c-23 -11 -50 -33 -60 -50 -15 -25 -25 -31 -51 -31 -33 0
-33 0 -33 -50 0 -43 3 -50 23 -55 12 -3 103 -4 202 -3 l180 3 3 53 c3 51 2 52
-24 52 -19 0 -37 12 -61 40 -21 24 -48 43 -71 50 -50 13 -60 13 -108 -9z"/>
<path d="M710 1662 c-19 -9 -45 -32 -58 -51 l-23 -35 3 -443 3 -443 38 -37 37
-38 478 -3 478 -3 35 23 c69 47 69 45 69 511 0 463 0 464 -64 510 -27 19 -46
22 -143 25 l-113 4 0 -44 c0 -24 -7 -54 -16 -66 -15 -22 -19 -22 -234 -22
l-219 0 -20 26 c-13 17 -21 41 -21 65 l0 39 -97 0 c-73 0 -107 -4 -133 -18z
m580 -229 l0 -58 25 28 c14 15 35 27 45 27 26 0 25 -8 -2 -37 -24 -26 -25 -22
20 -90 14 -22 13 -23 -15 -23 -21 0 -33 7 -43 25 -7 14 -17 25 -22 25 -4 0 -8
-11 -8 -25 0 -20 -5 -25 -25 -25 l-25 0 0 105 0 105 25 0 c24 0 25 -3 25 -57z
m170 -48 l0 -105 -25 0 -25 0 0 105 0 105 25 0 25 0 0 -105z m-540 75 c0 -16
-7 -20 -30 -20 l-30 0 0 -81 c0 -78 -1 -80 -22 -77 -18 2 -23 10 -24 33 -3
129 -2 125 -29 125 -18 0 -25 5 -25 20 0 18 7 20 80 20 73 0 80 -2 80 -20z
m118 -46 c18 -13 22 -25 22 -74 l0 -58 -57 -1 c-60 0 -83 10 -83 40 0 26 28
49 61 49 16 0 29 4 29 9 0 13 -27 21 -46 14 -20 -7 -38 18 -21 29 20 13 71 9
95 -8z m161 7 c22 -14 3 -31 -28 -25 -45 9 -45 -11 -1 -29 32 -12 40 -21 40
-40 0 -13 -6 -30 -14 -36 -21 -17 -100 -10 -104 9 -2 12 6 15 38 12 45 -5 55
12 13 23 -53 13 -69 47 -37 79 17 17 70 21 93 7z m345 -38 c12 -42 22 -42 36
2 9 28 17 35 37 35 13 0 23 -4 21 -8 -1 -5 -21 -50 -43 -100 -34 -78 -43 -92
-64 -92 -18 0 -22 4 -16 18 16 41 16 71 1 101 -9 17 -21 42 -26 57 -9 24 -8
25 17 22 21 -2 29 -10 37 -35z m-666 -299 c24 -17 30 -62 10 -82 -38 -38 -108
9 -89 61 15 38 44 46 79 21z m720 -6 c16 -16 15 -53 -2 -67 -9 -8 -100 -11
-312 -9 l-299 3 -3 28 c-7 59 -19 57 306 57 218 0 301 -3 310 -12z m-717 -178
c27 -15 26 -75 -2 -90 -52 -29 -107 26 -75 75 17 26 45 32 77 15z m725 -25 c4
-8 3 -26 0 -40 l-6 -25 -310 0 -310 0 0 40 0 40 310 0 c267 0 311 -2 316 -15z"/>
<path d="M970 1325 c0 -8 9 -15 20 -15 11 0 20 7 20 15 0 8 -9 15 -20 15 -11
0 -20 -7 -20 -15z"/>
</g>
</svg>
