<?xml version="1.0" standalone="no"?>
<!DOCTYPE svg PUBLIC "-//W3C//DTD SVG 20010904//EN"
 "http://www.w3.org/TR/2001/REC-SVG-20010904/DTD/svg10.dtd">
<svg version="1.0" xmlns="http://www.w3.org/2000/svg"
 width="1024.000000pt" height="1024.000000pt" viewBox="0 0 1024.000000 1024.000000"
 preserveAspectRatio="xMidYMid meet">

<g transform="translate(0.000000,1024.000000) scale(0.100000,-0.100000)"
fill="#000000" stroke="none">
<path d="M5483 9036 c-45 -39 -39 -92 19 -192 l48 -81 -35 -149 c-61 -264
-112 -477 -134 -554 -25 -88 -25 -90 -7 -90 9 0 19 23 29 63 8 34 27 112 42
172 65 264 111 462 120 517 6 29 14 40 40 52 18 9 38 22 45 31 7 8 18 15 24
15 14 1 45 27 74 64 28 36 30 96 4 119 -23 21 -90 22 -119 2 -19 -14 -21 -13
-27 8 -6 24 -43 47 -76 47 -10 0 -32 -11 -47 -24z m89 -33 c8 -10 18 -30 22
-45 6 -25 36 -41 36 -20 0 16 41 52 60 52 48 0 65 -60 28 -98 -33 -32 -125
-92 -142 -92 -14 0 -77 102 -90 146 -4 12 -2 33 3 48 8 20 17 26 39 26 16 0
36 -8 44 -17z"/>
<path d="M4752 8654 c-39 -27 -30 -78 29 -159 l51 -70 -5 -177 c-3 -98 -2
-180 2 -183 9 -5 21 150 21 274 l0 84 48 56 c77 89 88 120 53 159 -19 23 -65
30 -76 12 -9 -15 -34 -12 -51 5 -20 19 -44 19 -72 -1z m59 -24 c10 -6 19 -20
19 -30 0 -27 40 -27 47 -1 10 38 62 30 58 -9 -1 -8 -3 -23 -3 -32 -1 -10 -8
-18 -16 -18 -8 0 -24 -16 -36 -35 -12 -19 -28 -35 -35 -35 -15 0 -69 72 -84
113 -7 18 -5 28 7 41 19 19 18 19 43 6z"/>
<path d="M6508 8603 c-34 -37 -45 -60 -53 -113 -8 -53 8 -182 32 -257 l16 -52
-84 -98 c-46 -54 -98 -116 -114 -138 -16 -22 -37 -49 -47 -60 -9 -11 -24 -29
-31 -39 -14 -19 -16 -18 -63 22 -27 22 -71 59 -99 82 -27 22 -83 67 -124 100
-40 33 -81 60 -91 60 -21 0 -44 -24 -133 -143 -128 -169 -212 -267 -229 -267
-17 0 -506 81 -748 125 -74 13 -163 27 -197 31 -35 3 -67 12 -72 18 -5 6 -21
56 -36 111 -14 55 -33 117 -42 138 -24 55 -78 83 -195 102 -53 8 -157 27 -230
42 -205 40 -229 40 -267 6 -43 -39 -49 -79 -19 -123 28 -42 33 -43 418 -107
52 -8 106 -21 119 -27 21 -11 34 -54 123 -407 56 -217 108 -430 118 -474 10
-44 27 -118 40 -165 12 -47 29 -113 37 -148 l15 -62 -73 -78 c-156 -167 -174
-205 -128 -278 25 -42 48 -55 117 -69 59 -12 67 -26 23 -38 -54 -14 -122 -121
-107 -168 2 -8 7 -26 10 -42 4 -15 22 -45 42 -67 44 -48 115 -69 179 -51 121
32 166 201 78 294 l-28 29 70 -7 c39 -4 88 -11 110 -16 37 -7 186 -32 360 -59
39 -6 115 -20 170 -30 55 -11 121 -22 148 -26 26 -3 47 -9 47 -15 0 -5 -6 -9
-13 -9 -26 0 -88 -52 -108 -92 -36 -71 -9 -166 62 -213 121 -80 268 -2 269
141 0 43 -6 61 -36 104 l-36 53 43 -7 c24 -4 59 -9 76 -12 28 -5 38 -1 68 29
37 37 46 79 25 117 -16 29 -41 39 -137 55 -49 8 -241 39 -428 70 -562 91 -806
133 -812 139 -2 2 38 47 89 101 l92 97 46 -5 c25 -3 106 -16 180 -27 74 -12
189 -30 255 -40 171 -26 476 -77 570 -95 118 -22 149 -20 174 11 12 15 21 34
21 43 0 10 4 21 9 27 6 5 32 61 59 124 27 63 61 141 76 172 14 31 26 59 26 62
0 3 15 38 34 78 71 152 175 384 181 406 10 35 -13 81 -44 88 -63 14 -63 15
-18 74 17 24 36 49 42 56 13 18 -10 56 -56 90 -21 16 -39 34 -39 39 0 6 26 40
58 76 31 36 94 113 139 171 l82 106 63 7 c186 22 338 125 338 229 0 27 -9 46
-37 77 -35 39 -39 40 -87 36 -28 -2 -61 -8 -73 -12 -21 -7 -23 -4 -23 25 0 23
-9 41 -34 66 -29 29 -41 34 -83 34 -41 0 -54 -5 -75 -27z m93 -23 c28 -15 23
-27 -15 -40 -19 -6 -37 -17 -40 -25 -9 -24 -26 -17 -26 9 0 15 11 33 26 45 31
24 30 24 55 11z m249 -127 c21 -27 23 -54 5 -60 -16 -5 -58 56 -51 73 8 21 22
17 46 -13z m-2970 -233 c39 -13 117 -28 210 -41 165 -21 230 -45 253 -93 18
-36 43 -123 53 -181 4 -22 11 -45 16 -52 6 -7 5 -14 -3 -19 -8 -4 -9 -3 -5 4
4 7 3 12 -2 12 -10 0 -20 30 -29 85 -3 17 -9 32 -14 36 -5 3 -13 27 -18 53 -5
29 -19 58 -36 76 -27 28 -48 34 -210 61 -38 6 -90 15 -115 21 -25 5 -70 13
-100 19 -30 5 -70 11 -87 14 -18 3 -33 10 -33 16 0 11 76 4 120 -11z m1968
-158 c-11 -28 -106 -131 -120 -131 -24 -1 -23 5 10 37 15 15 40 44 56 65 16
20 35 37 43 37 8 0 13 -4 11 -8z m-128 -174 c0 -7 -32 -47 -70 -88 -38 -41
-70 -81 -70 -87 0 -7 -7 -13 -15 -13 -8 0 -15 2 -15 5 0 21 144 195 161 195 5
0 9 -6 9 -12z m160 -120 c25 -24 76 -65 113 -93 36 -27 66 -54 66 -59 1 -5
-20 -6 -46 -3 -90 12 -313 54 -319 60 -14 13 96 137 122 137 9 0 38 -19 64
-42z m-1267 5 c-7 -2 -19 -2 -25 0 -7 3 -2 5 12 5 14 0 19 -2 13 -5z m64 -104
c65 -11 145 -25 177 -30 33 -6 62 -12 66 -14 3 -2 3 -30 -2 -62 -4 -32 -10
-82 -14 -111 l-7 -54 -61 7 c-34 4 -97 13 -141 21 -44 7 -92 14 -107 14 -22 0
-28 5 -28 21 0 12 -11 63 -25 115 -14 52 -25 98 -25 104 0 15 34 12 167 -11z
m603 5 c0 -2 -12 -4 -26 -4 -14 0 -23 4 -20 9 6 8 46 4 46 -5z m135 -24 l70
-19 -70 6 c-38 3 -81 12 -95 19 l-25 13 25 0 c14 0 57 -9 95 -19z m351 -59
c88 -17 173 -32 189 -35 17 -2 1 -3 -35 0 -36 2 -87 9 -115 14 -27 5 -84 15
-125 21 -41 6 -88 14 -105 19 l-30 8 31 1 c17 1 103 -12 190 -28z m-571 -12
c66 -12 146 -23 178 -26 54 -5 58 -7 53 -27 -2 -11 -10 -59 -16 -106 -6 -47
-12 -90 -14 -96 -6 -17 -381 49 -381 67 0 35 18 195 22 202 6 11 26 9 158 -14z
m-708 -41 c-3 -8 -6 -5 -6 6 -1 11 2 17 5 13 3 -3 4 -12 1 -19z m1586 -5 c-7
-2 -21 -2 -30 0 -10 3 -4 5 12 5 17 0 24 -2 18 -5z m-243 -55 c140 -22 262
-40 270 -40 8 -1 20 -5 27 -10 7 -5 17 -7 23 -3 19 12 10 -22 -35 -121 -24
-54 -51 -100 -59 -102 -9 -2 -43 4 -76 12 -34 9 -71 16 -83 16 -12 0 -105 14
-206 32 l-183 32 6 56 c4 30 11 83 17 118 9 52 14 62 28 57 9 -4 131 -25 271
-47z m394 38 c73 -16 81 -19 72 -34 -4 -6 -22 -3 -46 9 -21 10 -54 19 -72 20
-18 1 -44 5 -58 9 -25 8 -24 8 5 9 17 1 61 -5 99 -13z m-1714 -71 c0 -5 -5 -3
-10 5 -5 8 -10 20 -10 25 0 6 5 3 10 -5 5 -8 10 -19 10 -25z m49 -210 c11 -55
27 -124 34 -152 8 -29 11 -53 7 -53 -10 0 -30 56 -30 84 0 12 -11 65 -25 119
-27 106 -30 126 -16 112 5 -6 18 -55 30 -110z m176 65 c17 -4 56 -11 88 -15
65 -7 63 0 45 -123 -10 -77 -13 -83 -32 -78 -12 4 -55 11 -96 17 -75 10 -100
25 -100 58 -1 9 -9 41 -20 71 -31 89 -29 94 33 86 28 -4 66 -11 82 -16z m326
-61 c11 -5 54 -12 97 -13 74 -4 212 -22 220 -30 2 -2 -4 -45 -13 -95 -20 -107
-4 -100 -180 -70 -66 11 -140 23 -165 27 -50 8 -49 7 -34 100 5 29 10 39 15
30 5 -7 6 3 2 25 -5 33 -3 37 16 37 12 0 31 -5 42 -11z m574 -84 c77 -14 183
-32 235 -40 52 -8 107 -18 121 -23 l25 -7 -39 -92 c-43 -101 -45 -102 -112
-77 -22 8 -67 17 -100 20 -33 3 -116 15 -184 27 l-123 21 7 50 c6 51 25 146
28 146 1 0 65 -12 142 -25z m-809 -182 c14 -5 15 -16 10 -62 -4 -30 -8 -57
-10 -58 -6 -6 -100 19 -110 28 -15 13 -45 97 -37 105 7 7 121 -3 147 -13z
m234 -39 c36 -3 75 -10 87 -15 11 -4 56 -11 100 -14 43 -4 81 -10 84 -13 3 -4
1 -34 -4 -68 -8 -59 -9 -61 -35 -56 -45 7 -82 26 -83 42 -1 11 -2 11 -6 -2 -2
-9 -10 -15 -16 -13 -7 2 -56 9 -110 15 -132 14 -141 19 -132 78 9 58 12 64 33
58 10 -2 46 -8 82 -12z m-423 -36 c-3 -8 -6 -5 -6 6 -1 11 2 17 5 13 3 -3 4
-12 1 -19z m923 -49 c19 -5 100 -18 180 -30 80 -11 147 -22 148 -24 2 -2 -9
-28 -25 -57 -21 -39 -34 -53 -48 -51 -35 3 -117 28 -111 34 4 3 -29 6 -71 6
-43 0 -106 3 -140 8 -70 9 -71 11 -56 98 l6 38 41 -6 c23 -4 57 -11 76 -16z
m-870 -424 c147 -22 220 -34 330 -55 52 -10 138 -24 190 -31 52 -6 129 -20
170 -30 l75 -19 -60 5 c-58 5 -175 23 -420 65 -66 11 -169 27 -230 36 -100 14
-212 42 -175 44 8 0 62 -7 120 -15z m980 -161 c162 -23 185 -28 180 -39 -3 -5
-12 -9 -20 -7 -8 1 -49 7 -90 13 -89 11 -262 48 -270 56 -5 6 27 2 200 -23z"/>
<path d="M5048 7223 c7 -3 16 -2 19 1 4 3 -2 6 -13 5 -11 0 -14 -3 -6 -6z"/>
<path d="M5125 7210 c3 -5 -1 -10 -9 -10 -9 0 -16 -5 -16 -11 0 -6 7 -8 16 -5
13 5 15 1 9 -21 -6 -26 -5 -27 11 -11 18 17 13 68 -7 68 -6 0 -7 -4 -4 -10z"/>
<path d="M5707 7013 c-4 -3 -7 -13 -7 -21 0 -12 3 -12 15 -2 12 10 14 8 10
-12 l-4 -23 18 22 c10 12 20 21 22 20 3 -1 -2 4 -10 11 -16 13 -34 16 -44 5z"/>
<path d="M5192 6890 c9 -6 19 -28 23 -51 6 -37 8 -39 21 -22 17 22 18 59 2 69
-6 4 -8 3 -4 -4 3 -6 2 -13 -3 -16 -5 -4 -12 3 -16 14 -3 11 -14 20 -23 20
-16 -1 -16 -1 0 -10z"/>
<path d="M5101 6834 c0 -11 3 -14 6 -6 3 7 2 16 -1 19 -3 4 -6 -2 -5 -13z"/>
<path d="M9745 7195 c0 -390 1 -552 2 -358 2 193 2 513 0 710 -1 197 -2 39 -2
-352z"/>
<path d="M7839 6477 c-8 -7 -20 -19 -25 -28 -14 -26 -66 -89 -101 -125 -18
-18 -33 -36 -33 -40 0 -4 -19 -28 -42 -54 -74 -81 -152 -172 -168 -194 -8 -12
-24 -32 -35 -43 -11 -12 -33 -38 -50 -58 -16 -20 -35 -42 -40 -49 -6 -6 -44
-49 -85 -96 -72 -83 -98 -111 -211 -234 -31 -34 -94 -104 -139 -156 -46 -52
-95 -106 -109 -120 -14 -14 -39 -42 -56 -62 -68 -83 -219 -243 -293 -310 -29
-26 -52 -49 -52 -52 0 -2 -55 -60 -122 -129 -68 -69 -157 -163 -198 -207 -41
-45 -77 -84 -80 -86 -2 -3 4 -2 15 2 11 4 22 11 25 14 3 4 25 10 50 13 41 6
43 6 26 -8 -11 -8 -30 -15 -43 -15 -13 0 -32 -9 -44 -21 -11 -11 -26 -18 -34
-15 -21 8 -54 -22 -394 -359 -373 -369 -391 -387 -391 -397 0 -13 -37 -9 -52
5 -12 12 -90 43 -262 108 -44 16 -104 40 -134 54 -30 14 -61 25 -69 25 -8 0
-29 6 -46 14 -18 8 -86 35 -152 61 -207 81 -220 86 -240 96 -11 5 -45 18 -75
28 -30 11 -98 36 -150 56 -52 20 -117 45 -145 55 -27 10 -84 33 -125 50 -41
18 -86 34 -100 37 -14 4 -34 12 -45 18 -11 7 -33 16 -50 20 -16 3 -58 20 -93
36 -35 16 -68 29 -73 29 -5 0 -59 21 -121 46 -62 25 -144 56 -182 70 -39 14
-82 32 -96 39 -14 7 -107 43 -205 80 -99 37 -205 77 -235 90 -30 13 -93 37
-140 55 -47 18 -107 43 -134 56 -28 13 -56 24 -63 24 -7 0 -21 5 -31 10 -21
12 -228 90 -259 97 -13 3 -34 -2 -48 -11 -13 -9 -34 -16 -46 -16 -11 0 -45 -7
-75 -16 l-54 -15 0 -83 0 -83 34 -18 c19 -11 33 -22 30 -26 -2 -4 0 -10 6 -14
5 -3 10 -1 10 5 0 7 15 -1 34 -16 65 -56 78 -65 83 -60 8 8 35 -23 29 -33 -3
-5 0 -14 8 -20 11 -9 15 -9 18 1 4 10 14 8 46 -6 23 -11 42 -23 42 -28 0 -13
-18 -10 -23 5 -2 6 -8 9 -12 5 -5 -5 0 -17 10 -28 13 -15 26 -19 45 -15 19 4
39 -5 87 -39 34 -25 76 -51 95 -59 31 -14 78 -51 78 -63 0 -3 -16 4 -36 15
-45 27 -55 20 -19 -13 l26 -24 -23 -4 c-21 -3 -20 -4 9 -15 24 -9 34 -9 39 -1
5 7 2 8 -6 3 -8 -5 -11 -4 -6 3 4 6 13 9 22 5 11 -4 12 -9 4 -18 -8 -10 -7
-14 7 -18 13 -3 10 -5 -7 -6 -15 0 -30 -5 -36 -11 -12 -12 -73 -15 -99 -5 -16
6 -18 5 -8 -5 16 -17 -1 -50 -25 -50 -22 0 -544 -169 -556 -180 -8 -8 271
-150 324 -165 14 -4 38 -17 54 -28 36 -25 97 -57 109 -57 5 0 30 -15 56 -33
25 -18 72 -46 103 -62 32 -17 58 -34 58 -38 0 -5 4 -6 9 -3 4 3 16 -3 26 -14
10 -11 28 -20 40 -20 12 0 30 -8 39 -19 9 -10 52 -36 94 -57 42 -21 96 -51
120 -67 23 -15 64 -38 90 -49 26 -11 60 -30 77 -42 16 -11 39 -26 50 -32 51
-27 63 -33 100 -50 22 -9 45 -17 52 -16 6 2 14 -2 18 -8 4 -6 -1 -7 -12 -4
-10 3 16 -13 57 -36 41 -24 80 -43 87 -43 7 0 9 -5 6 -10 -4 -6 1 -8 11 -4 9
4 15 3 12 -2 -3 -4 13 -14 34 -21 22 -7 40 -16 40 -20 0 -3 30 -21 68 -40 37
-19 81 -44 97 -56 17 -11 50 -31 75 -43 73 -36 133 -70 150 -86 9 -8 20 -15
25 -15 4 0 22 -10 39 -23 17 -13 46 -29 64 -36 17 -8 32 -17 32 -22 0 -4 30
-22 68 -40 37 -18 81 -43 98 -56 17 -12 34 -23 38 -23 4 0 26 -13 49 -28 23
-16 49 -32 57 -36 8 -4 33 -18 55 -32 22 -13 48 -27 58 -30 9 -4 17 -9 17 -13
0 -15 80 -51 114 -51 20 0 36 -4 36 -10 0 -5 -4 -10 -10 -10 -17 0 -11 -19 9
-30 14 -7 27 -6 48 4 82 42 124 59 224 92 108 35 136 39 121 19 -12 -17 -323
-145 -352 -145 -17 0 -31 -41 -37 -111 -8 -98 -25 -86 -22 17 l2 86 -47 29
c-25 16 -49 29 -53 29 -4 0 -16 8 -27 18 -12 11 -52 37 -91 59 -38 22 -108 64
-155 93 -47 29 -115 70 -152 91 -37 21 -105 63 -152 94 -47 30 -87 55 -89 55
-8 0 -182 102 -197 115 -8 7 -89 56 -180 108 -91 52 -190 111 -220 130 -30 19
-84 50 -120 67 -36 18 -72 38 -80 45 -8 7 -51 31 -95 55 -44 23 -91 50 -105
59 -14 9 -63 36 -110 60 -47 23 -110 56 -140 73 -30 16 -122 64 -205 105 -82
42 -172 91 -200 108 -27 18 -61 36 -74 40 -13 4 -51 25 -85 46 -33 21 -68 39
-77 39 -9 0 -22 7 -29 15 -7 8 -17 15 -22 15 -5 0 -30 14 -55 31 -56 39 -63
32 -63 -63 l0 -68 42 -21 c24 -12 72 -38 107 -58 35 -20 125 -67 199 -106 75
-38 137 -75 139 -81 2 -6 -13 -16 -34 -22 -155 -48 -203 -64 -203 -71 0 -9 72
-41 93 -41 8 0 28 -10 44 -22 15 -13 48 -33 73 -44 178 -85 286 -139 291 -146
8 -12 59 -39 83 -44 10 -2 26 -10 36 -19 9 -8 21 -15 27 -15 6 0 13 -4 15 -8
2 -4 37 -24 78 -45 41 -20 109 -56 150 -79 41 -23 96 -52 122 -65 27 -13 48
-28 48 -33 0 -6 5 -10 10 -10 20 0 171 -80 201 -106 8 -8 21 -14 28 -14 6 0
39 -18 72 -40 34 -22 99 -58 145 -80 46 -23 84 -45 84 -49 0 -5 12 -14 28 -20
15 -6 34 -15 42 -20 8 -5 76 -46 150 -91 74 -46 146 -91 160 -101 14 -10 45
-29 70 -41 25 -12 59 -33 76 -45 17 -13 34 -23 39 -23 4 0 24 -13 44 -29 20
-15 63 -43 96 -60 33 -18 69 -41 80 -51 11 -10 31 -23 45 -29 29 -12 51 -26
98 -60 41 -29 93 -23 162 18 33 19 263 121 274 121 4 0 35 13 70 29 34 17 76
33 92 37 16 4 53 20 82 36 30 16 88 40 129 54 41 14 83 29 92 35 9 5 48 20 86
33 103 35 156 55 190 70 17 8 57 22 90 32 33 10 62 22 65 25 3 4 32 15 65 24
33 10 64 21 69 26 6 5 17 9 27 9 9 0 41 9 70 21 72 28 113 43 179 63 30 10 98
33 150 51 52 18 156 52 230 75 74 23 180 57 235 75 118 39 300 95 405 125 41
12 89 26 105 31 17 4 71 20 120 35 50 14 112 34 139 45 27 10 54 19 61 19 7 0
48 12 91 27 44 14 93 30 109 34 17 4 54 14 84 23 48 13 61 13 115 1 76 -18 99
-19 68 -1 -21 11 -22 14 -7 26 13 11 23 11 46 3 16 -6 29 -7 29 -2 0 5 10 9
23 9 12 1 33 7 46 14 13 7 32 11 42 9 9 -3 28 3 43 12 14 9 30 14 36 10 17
-10 70 5 70 21 0 8 7 14 15 14 17 0 20 27 5 50 -9 13 -10 13 -10 0 0 -13 -1
-13 -10 0 -5 8 -7 25 -4 37 5 18 1 23 -19 28 -14 4 -34 4 -45 1 -12 -4 -24 0
-33 10 -11 13 -11 15 2 13 7 -2 35 7 61 19 50 25 130 50 275 87 51 13 97 27
103 30 5 3 10 45 10 92 0 72 -2 84 -14 74 -8 -6 -47 -21 -87 -32 -41 -12 -96
-27 -124 -35 -46 -14 -130 -36 -470 -127 -71 -20 -186 -52 -255 -72 -69 -21
-154 -46 -190 -56 -36 -11 -105 -30 -155 -44 -137 -37 -208 -58 -350 -105 -71
-23 -159 -50 -195 -60 -36 -10 -150 -45 -255 -79 -104 -34 -252 -82 -328 -107
-76 -25 -144 -43 -150 -41 -7 2 -1 9 13 14 14 6 61 25 105 43 44 18 118 46
165 63 47 17 91 37 98 44 7 7 21 13 30 13 15 -1 14 -3 -2 -15 -11 -8 -16 -15
-12 -15 4 0 19 8 32 19 13 10 45 22 71 25 27 4 62 13 78 20 17 8 41 19 55 25
14 6 70 22 125 36 54 14 165 48 245 74 168 56 194 63 315 92 50 12 108 30 130
40 22 10 85 29 140 43 55 13 122 32 150 41 27 10 91 28 141 40 50 12 106 29
125 38 19 8 75 25 124 37 50 12 99 25 110 30 32 13 94 28 178 45 74 14 117 29
117 41 0 3 -6 4 -12 2 -7 -3 -34 8 -60 23 -26 15 -69 35 -95 44 -26 9 -55 23
-63 30 -26 24 -274 149 -399 202 -20 9 -30 18 -23 20 6 3 12 10 12 16 0 8 -19
12 -51 12 -42 0 -55 -5 -67 -23 -8 -13 -25 -22 -39 -22 -13 0 -32 -7 -40 -16
-10 -10 -25 -13 -39 -10 -14 4 -24 2 -24 -4 0 -5 -9 -10 -19 -10 -11 0 -22 -4
-26 -10 -3 -5 -12 -7 -19 -4 -8 3 -17 1 -20 -4 -3 -6 -15 -8 -26 -5 -12 3 -28
-1 -38 -10 -9 -8 -30 -19 -47 -23 -16 -4 -40 -14 -52 -22 -14 -8 -33 -12 -47
-8 -26 6 -46 -8 -24 -17 7 -3 0 -6 -17 -7 -16 0 -52 -12 -80 -25 -27 -14 -57
-25 -66 -25 -9 0 -30 -7 -45 -15 -16 -8 -37 -15 -47 -15 -10 0 -39 -10 -65
-21 -56 -26 -126 -36 -136 -20 -8 13 -36 15 -36 3 0 -5 10 -14 23 -19 25 -12
30 -9 -75 -43 -37 -12 -72 -19 -78 -15 -5 3 -10 2 -10 -3 0 -9 -26 -19 -55
-22 -5 -1 -17 -7 -25 -15 -8 -7 -51 -24 -95 -38 -95 -30 -163 -54 -227 -78
-49 -18 -88 -16 -88 6 0 14 43 25 83 21 14 -2 24 0 21 5 -8 14 7 59 21 59 6 0
27 14 45 31 25 25 29 33 19 40 -10 6 -8 9 9 9 12 0 22 4 22 9 0 6 -11 6 -27 1
-116 -36 -189 -62 -197 -70 -6 -6 -18 -10 -28 -10 -9 0 -57 -17 -105 -39 -48
-21 -104 -42 -123 -46 -19 -4 -51 -15 -70 -24 -61 -31 -103 -48 -170 -72 -36
-12 -86 -33 -112 -46 -26 -12 -55 -23 -64 -23 -9 0 -38 -11 -66 -25 -27 -14
-57 -25 -67 -25 -9 0 -25 -6 -36 -13 -11 -7 -47 -23 -80 -36 -33 -13 -78 -32
-100 -41 -22 -9 -94 -39 -160 -66 -148 -59 -167 -69 -157 -79 4 -5 1 -5 -5 -1
-7 4 -18 4 -23 1 -14 -9 14 -35 37 -35 10 0 24 -9 31 -20 7 -11 21 -20 31 -20
27 0 35 -17 12 -25 -10 -3 -23 -5 -27 -4 -28 5 -54 -3 -54 -16 0 -8 -4 -15 -9
-15 -5 0 -18 -3 -28 -6 -15 -5 -15 -4 -3 5 13 9 13 11 -1 11 -17 0 -36 -18
-38 -35 -1 -5 -21 -10 -44 -9 -23 0 -36 -1 -29 -4 18 -6 -44 -37 -91 -46 -21
-4 -41 -14 -44 -21 -4 -11 -10 -12 -23 -5 -10 6 -27 10 -37 10 -10 0 -27 7
-38 16 -16 12 -17 16 -6 23 9 6 10 11 2 15 -6 4 -8 12 -5 18 4 6 -1 8 -12 6
-16 -3 -19 -12 -19 -53 0 -46 2 -50 25 -53 40 -6 44 -19 9 -26 -17 -3 -37 -13
-44 -22 -8 -12 -17 -14 -27 -8 -27 16 -98 84 -98 94 0 5 -7 7 -16 3 -8 -3 -25
3 -37 15 -12 11 -36 27 -54 36 -42 21 -86 63 -79 74 3 5 -5 10 -18 10 -19 0
-153 88 -194 129 -7 7 -18 13 -23 13 -6 0 -7 4 -4 10 3 6 -1 7 -9 4 -9 -3 -16
-1 -16 5 0 7 -9 15 -19 19 -11 4 -37 23 -58 43 -21 20 -51 39 -65 42 -15 4
-30 16 -33 27 -4 11 -11 18 -16 14 -6 -3 -20 3 -32 13 -12 11 -39 30 -60 43
-30 17 -36 25 -25 32 10 8 9 9 -4 5 -15 -5 -50 15 -86 50 -7 7 -17 13 -21 13
-4 0 -16 8 -27 18 -10 10 -36 29 -56 43 -21 14 -35 29 -30 34 4 5 1 5 -5 1
-20 -11 -102 52 -121 92 -9 21 -21 40 -25 43 -10 7 12 26 37 30 11 2 21 9 23
16 6 16 -65 83 -137 130 -61 39 -69 48 -47 56 6 2 5 3 -3 2 -17 -2 -70 22 -70
32 0 3 13 3 29 0 37 -8 99 2 104 17 2 6 3 3 1 -8 -1 -10 4 -25 12 -33 8 -8 14
-10 14 -4 0 7 8 7 25 -1 37 -17 31 -54 -9 -51 l-28 2 37 -36 c29 -29 42 -34
69 -31 21 2 38 -2 47 -11 12 -14 14 -13 17 2 2 9 8 15 13 12 5 -4 9 10 9 29 0
25 4 36 15 36 8 0 15 -7 15 -15 0 -11 11 -15 40 -15 33 0 40 3 40 20 0 15 7
20 25 20 22 0 25 -4 25 -34 0 -19 -6 -37 -12 -39 -10 -4 -10 -6 0 -6 7 -1 12
-16 12 -41 0 -29 4 -40 15 -40 8 0 15 9 15 19 0 21 19 31 56 31 13 0 24 5 24
10 0 6 7 10 15 10 11 0 15 -11 15 -40 0 -22 5 -40 10 -40 6 0 10 18 10 41 0
22 4 38 9 34 5 -3 12 -1 16 5 12 20 25 -1 25 -41 0 -37 2 -39 30 -39 22 0 30
5 30 18 0 14 12 21 49 30 52 12 88 6 143 -24 14 -8 34 -14 43 -14 9 0 23 -7
31 -15 9 -8 25 -15 37 -15 24 0 98 -24 137 -45 14 -7 48 -20 75 -29 96 -30
220 -74 249 -90 16 -8 52 -20 80 -27 28 -6 62 -20 75 -30 13 -11 35 -19 50
-19 14 0 50 -13 78 -29 29 -16 75 -35 103 -42 27 -7 50 -16 50 -21 0 -4 9 -8
19 -8 11 0 23 -4 26 -10 3 -5 26 -10 50 -10 38 0 46 4 62 30 9 17 24 32 33 35
21 8 70 52 70 65 0 5 5 10 10 10 15 0 150 132 150 146 0 7 12 20 27 29 14 10
38 29 53 44 53 52 279 266 294 279 23 18 177 92 194 92 13 0 137 47 197 75 17
8 68 26 115 40 47 14 99 32 115 40 17 8 73 28 125 45 52 17 104 36 115 42 17
9 72 25 155 45 14 3 27 9 30 13 4 7 257 97 385 137 28 9 69 24 93 35 24 10 58
21 75 25 18 3 43 11 57 18 50 25 76 34 129 45 30 6 68 17 85 25 17 7 40 15 50
17 39 6 25 25 -43 59 -42 21 -67 39 -64 46 6 16 10 15 -62 2 -32 -6 -74 -19
-94 -30 -20 -10 -41 -19 -48 -19 -7 0 -32 -8 -56 -19 -23 -10 -64 -25 -92 -34
-126 -40 -602 -204 -622 -215 -12 -7 -27 -12 -33 -12 -6 0 -30 -9 -53 -20 -23
-12 -62 -25 -87 -31 -25 -5 -72 -20 -105 -34 -157 -62 -219 -85 -234 -85 -9 0
-21 -4 -26 -9 -11 -10 -75 -23 -75 -15 0 14 34 54 46 54 8 0 24 20 36 45 16
32 29 46 49 50 15 4 30 13 33 20 4 12 -4 13 -41 8 -55 -7 -52 10 4 33 19 8 42
28 51 44 9 17 21 30 25 30 5 0 80 71 167 158 133 132 170 163 232 194 123 62
248 118 261 118 6 0 28 10 47 21 19 12 50 27 70 34 19 7 69 28 110 48 122 57
190 87 196 87 3 0 29 11 57 24 124 58 356 156 405 172 29 9 64 26 79 37 38 30
126 16 169 -28 22 -22 37 -19 24 5 -11 20 -43 37 -82 45 -10 2 -26 9 -35 15
-15 10 -14 10 9 6 30 -7 38 1 29 27 -6 17 -8 17 -20 3 -10 -11 -18 -13 -31 -6
-10 5 -37 8 -59 6 -42 -3 -63 7 -35 18 9 3 27 6 40 6 13 0 24 5 24 11 0 5 5 7
10 4 6 -3 10 -1 10 5 0 6 11 16 25 22 22 10 27 8 46 -16 18 -23 26 -26 53 -20
36 7 59 24 33 24 -10 0 -14 5 -11 15 4 9 0 15 -10 15 -9 0 -16 5 -16 10 0 6 5
10 11 10 6 0 9 6 6 13 -3 8 4 14 19 15 26 2 74 29 74 42 0 8 -87 -22 -130 -45
-44 -25 -137 -65 -148 -65 -18 0 -72 -35 -72 -47 0 -6 -8 -9 -19 -6 -11 3 -56
-12 -103 -35 -124 -60 -294 -141 -357 -169 -31 -14 -126 -59 -211 -101 -288
-139 -360 -168 -360 -144 0 6 22 34 50 63 27 30 50 59 50 64 0 11 24 34 56 54
18 11 18 12 -2 6 -24 -6 -54 3 -54 16 0 5 8 9 18 9 22 1 54 25 45 34 -4 4 -1
4 8 1 10 -4 31 17 67 70 29 41 56 75 60 75 5 0 31 28 60 63 28 34 76 89 107
122 32 33 61 71 66 86 5 14 23 33 39 43 17 9 30 23 30 30 0 6 20 32 45 57 24
24 45 48 45 52 0 4 18 26 40 49 22 23 42 50 46 60 3 10 11 18 17 18 11 0 67
71 67 84 0 4 18 24 40 45 22 21 40 45 40 53 0 9 9 18 20 21 11 3 28 20 37 37
10 18 48 62 85 99 l67 66 -32 2 c-18 1 -39 -3 -48 -10z m-989 -1207 c-19 -13
-30 -13 -30 0 0 6 10 10 23 10 18 0 19 -2 7 -10z m-4495 -805 c17 -13 26 -24
20 -24 -5 0 -23 11 -40 24 -16 14 -25 25 -20 25 6 0 24 -11 40 -25z m79 -54
c4 -5 -3 -7 -13 -4 -11 3 -22 11 -25 19 -4 11 -2 12 14 4 10 -5 21 -14 24 -19z
m207 -129 c-13 -4 -41 16 -41 29 0 5 12 2 26 -8 15 -9 21 -19 15 -21z m-281
-22 c0 -5 -2 -10 -4 -10 -3 0 -8 5 -11 10 -3 6 -1 10 4 10 6 0 11 -4 11 -10z
m495 -111 c11 -17 -1 -21 -15 -4 -8 9 -8 15 -2 15 6 0 14 -5 17 -11z m70 -39
c8 -13 -5 -13 -25 0 -13 8 -13 10 2 10 9 0 20 -4 23 -10z m55 -25 c11 -13 8
-15 -13 -15 -19 0 -25 4 -21 15 4 8 10 15 14 15 4 0 13 -7 20 -15z m20 -35 c0
-5 -2 -10 -4 -10 -3 0 -8 5 -11 10 -3 6 -1 10 4 10 6 0 11 -4 11 -10z m460
-65 c0 -39 -19 -54 -52 -43 -36 13 -35 23 2 37 17 5 30 15 30 20 0 6 5 11 10
11 6 0 10 -11 10 -25z m-170 -85 c0 -5 -4 -10 -10 -10 -5 0 -10 5 -10 10 0 6
5 10 10 10 6 0 10 -4 10 -10z m-890 -350 c0 -5 -2 -10 -4 -10 -3 0 -8 5 -11
10 -3 6 -1 10 4 10 6 0 11 -4 11 -10z m3710 -54 c0 -2 -7 -7 -16 -10 -8 -3
-12 -2 -9 4 6 10 25 14 25 6z m-247 -54 c7 -9 6 -11 -7 -6 -9 3 -16 16 -15 28
0 14 2 16 6 6 3 -8 10 -21 16 -28z m-973 -922 c-34 -19 -70 -27 -56 -13 8 8
65 30 81 31 6 1 -6 -7 -25 -18z"/>
<path d="M1792 6469 c2 -7 10 -15 17 -17 8 -3 12 1 9 9 -2 7 -10 15 -17 17 -8
3 -12 -1 -9 -9z"/>
<path d="M9745 6080 c0 -223 1 -314 2 -202 2 111 2 293 0 405 -1 111 -2 20 -2
-203z"/>
<path d="M1807 6293 c-11 -10 14 -33 36 -33 21 0 21 0 -1 20 -23 22 -26 23
-35 13z"/>
<path d="M1985 6180 c3 -5 8 -10 11 -10 2 0 4 5 4 10 0 6 -5 10 -11 10 -5 0
-7 -4 -4 -10z"/>
<path d="M2126 6067 c3 -10 9 -15 12 -12 3 3 0 11 -7 18 -10 9 -11 8 -5 -6z"/>
<path d="M8580 6059 c0 -5 5 -7 10 -4 6 3 10 8 10 11 0 2 -4 4 -10 4 -5 0 -10
-5 -10 -11z"/>
<path d="M8034 5815 c-18 -14 -18 -14 4 -8 12 3 22 9 22 14 0 12 -3 11 -26 -6z"/>
<path d="M9743 5515 c0 -44 2 -61 4 -37 2 23 2 59 0 80 -2 20 -4 1 -4 -43z"/>
<path d="M8027 5553 c-10 -9 -9 -23 1 -23 5 0 9 7 9 15 0 17 -1 18 -10 8z"/>
<path d="M9743 4865 c0 -38 2 -53 4 -32 2 20 2 52 0 70 -2 17 -4 1 -4 -38z"/>
<path d="M1805 4590 c10 -11 20 -20 23 -20 3 0 -3 9 -13 20 -10 11 -20 20 -23
20 -3 0 3 -9 13 -20z"/>
<path d="M1937 4474 c-8 -8 1 -24 14 -24 5 0 9 7 9 15 0 15 -12 20 -23 9z"/>
<path d="M2000 4380 c0 -5 5 -10 11 -10 5 0 7 5 4 10 -3 6 -8 10 -11 10 -2 0
-4 -4 -4 -10z"/>
<path d="M3640 4380 c8 -5 22 -10 30 -10 13 0 13 1 0 10 -8 5 -22 10 -30 10
-13 0 -13 -1 0 -10z"/>
<path d="M8382 4368 c-23 -5 -40 -13 -37 -17 2 -5 -4 -11 -15 -14 -11 -3 -18
-1 -14 4 8 14 -9 10 -31 -8 -14 -11 -15 -14 -4 -10 12 4 16 0 13 -11 -14 -74
-13 -92 7 -92 10 0 19 -4 19 -9 0 -6 12 -6 30 0 17 6 30 15 30 21 0 6 -7 7
-16 4 -14 -6 -15 -4 -3 10 8 10 23 14 42 11 32 -4 33 -2 41 61 3 25 1 42 -5
42 -6 0 -7 5 -4 10 7 11 6 11 -53 -2z m4 -34 c-4 -12 -1 -14 13 -9 21 6 38
-10 21 -20 -5 -3 -10 -1 -10 5 0 6 -4 9 -10 5 -5 -3 -21 -3 -36 1 -26 7 -26 8
-9 20 25 19 39 18 31 -2z"/>
<path d="M2156 4355 c-3 -8 -2 -14 2 -14 18 3 26 -2 15 -9 -6 -4 10 -7 35 -8
26 -1 38 1 27 4 -11 2 -22 7 -25 11 -3 3 -15 11 -27 18 -17 10 -22 9 -27 -2z"/>
<path d="M3735 4350 c3 -5 13 -10 21 -10 8 0 36 -11 62 -24 26 -13 99 -41 162
-61 63 -21 124 -42 135 -48 11 -6 34 -16 50 -23 17 -6 75 -28 130 -48 55 -21
114 -44 132 -52 17 -8 36 -14 42 -14 6 0 11 -4 11 -10 0 -5 10 -10 21 -10 12
0 60 -15 108 -34 47 -19 115 -44 151 -55 36 -12 79 -28 95 -36 17 -7 51 -19
78 -25 26 -7 47 -16 47 -20 0 -10 49 -24 78 -22 12 0 22 -3 22 -8 0 -5 10 -12
23 -16 12 -4 25 -12 29 -18 4 -6 10 -8 13 -5 3 4 -24 28 -60 54 -36 27 -65 52
-65 58 0 5 -7 6 -16 3 -8 -3 -13 -2 -10 3 3 4 -5 13 -17 20 -12 7 -34 30 -50
52 -15 22 -32 37 -37 34 -5 -3 -7 0 -5 7 3 8 -8 21 -25 31 -16 10 -30 23 -30
28 0 6 5 7 12 3 7 -4 8 -3 4 4 -5 8 -13 9 -25 2 -15 -7 -18 -6 -17 8 1 11 -7
17 -21 18 -13 1 -23 -2 -23 -5 0 -4 -9 -7 -20 -8 -11 -1 -20 2 -20 8 0 5 -12
9 -26 9 -14 0 -35 5 -47 12 -12 6 -55 11 -94 10 -42 -1 -73 3 -73 8 0 6 -21
10 -47 10 -29 0 -53 6 -65 17 -17 15 -19 15 -38 -2 -20 -18 -21 -18 -41 4 -17
18 -27 20 -57 15 -33 -6 -36 -5 -24 9 19 22 5 26 -76 23 -74 -4 -96 4 -65 24
16 9 15 10 -7 9 -14 -1 -52 6 -85 15 -249 72 -250 72 -240 56z m1175 -420 c0
-5 -2 -10 -4 -10 -3 0 -8 5 -11 10 -3 6 -1 10 4 10 6 0 11 -4 11 -10z"/>
<path d="M8164 4285 c27 -21 53 -20 36 0 -7 8 -22 15 -34 15 -21 -1 -21 -1 -2
-15z"/>
<path d="M4100 4269 c0 -5 11 -9 24 -9 13 0 33 -3 43 -6 15 -6 16 -5 5 7 -14
15 -72 22 -72 8z"/>
<path d="M8105 4265 c-22 -11 -25 -14 -10 -14 11 0 29 4 40 8 11 5 27 6 35 3
11 -4 8 -8 -10 -13 -19 -5 -14 -7 17 -5 24 0 43 2 43 3 0 4 -72 33 -79 32 -3
0 -19 -7 -36 -14z"/>
<path d="M4220 4256 c0 -2 7 -7 16 -10 8 -3 12 -2 9 4 -6 10 -25 14 -25 6z"/>
<path d="M7965 4230 c-3 -5 -17 -10 -31 -10 -13 0 -24 -4 -24 -10 0 -5 13 -7
32 -3 22 4 29 3 24 -5 -5 -8 0 -12 13 -12 23 0 28 15 9 23 -8 3 -7 6 4 6 28 2
32 21 4 21 -14 0 -28 -4 -31 -10z"/>
<path d="M2232 4213 c-7 -7 -11 -13 -10 -14 50 -14 83 -2 44 17 -17 8 -25 7
-34 -3z"/>
<path d="M8113 4211 c-46 -23 -43 -43 5 -36 27 4 32 3 17 -4 -11 -5 -33 -10
-50 -10 -23 -1 -27 -4 -15 -11 31 -20 140 1 140 27 0 7 7 13 15 13 8 0 15 7
15 15 0 10 -10 15 -34 15 -19 0 -40 2 -48 4 -7 2 -28 -4 -45 -13z"/>
<path d="M7850 4200 c-24 -8 -23 -8 8 -9 17 -1 32 4 32 9 0 11 -5 11 -40 0z"/>
<path d="M8268 4193 c7 -3 16 -2 19 1 4 3 -2 6 -13 5 -11 0 -14 -3 -6 -6z"/>
<path d="M7794 4175 c-16 -12 -17 -14 -3 -15 9 0 19 7 23 15 7 19 5 19 -20 0z"/>
<path d="M7940 4172 c0 -5 14 -7 30 -4 17 2 30 6 30 8 0 2 -13 4 -30 4 -16 0
-30 -4 -30 -8z"/>
<path d="M7671 4136 c-9 -11 -8 -15 6 -20 10 -4 14 -4 10 0 -4 5 3 14 15 21
23 12 23 12 2 13 -12 0 -27 -6 -33 -14z"/>
<path d="M8055 4120 c3 -5 10 -10 16 -10 5 0 9 5 9 10 0 6 -7 10 -16 10 -8 0
-12 -4 -9 -10z"/>
<path d="M7638 4103 c6 -2 18 -2 25 0 6 3 1 5 -13 5 -14 0 -19 -2 -12 -5z"/>
<path d="M7740 4086 c0 -2 7 -7 16 -10 8 -3 12 -2 9 4 -6 10 -25 14 -25 6z"/>
<path d="M7430 4049 c0 -5 5 -7 10 -4 6 3 10 8 10 11 0 2 -4 4 -10 4 -5 0 -10
-5 -10 -11z"/>
<path d="M7385 4040 c-3 -5 3 -10 14 -10 12 0 21 5 21 10 0 6 -6 10 -14 10 -8
0 -18 -4 -21 -10z"/>
<path d="M7348 4023 c7 -3 16 -2 19 1 4 3 -2 6 -13 5 -11 0 -14 -3 -6 -6z"/>
<path d="M7165 3971 c-19 -8 -19 -8 3 -15 13 -4 26 -5 29 -2 4 3 0 6 -8 7 -8
1 -3 5 11 9 20 6 21 8 5 8 -11 0 -29 -3 -40 -7z"/>
<path d="M7106 3951 c-3 -4 6 -8 20 -9 13 -1 24 0 24 2 0 7 -40 14 -44 7z"/>
<path d="M3180 3935 c0 -8 5 -15 10 -15 6 0 10 7 10 15 0 8 -4 15 -10 15 -5 0
-10 -7 -10 -15z"/>
<path d="M7008 3903 c6 -2 18 -2 25 0 6 3 1 5 -13 5 -14 0 -19 -2 -12 -5z"/>
<path d="M6920 3891 l-25 -7 23 -6 c13 -4 35 0 50 8 l27 14 -25 -1 c-14 -1
-36 -4 -50 -8z"/>
<path d="M6926 3852 c-2 -4 4 -8 15 -8 10 0 19 4 19 8 0 4 -6 8 -14 8 -8 0
-17 -4 -20 -8z"/>
<path d="M6785 3840 c-3 -5 1 -10 10 -10 9 0 13 5 10 10 -3 6 -8 10 -10 10 -2
0 -7 -4 -10 -10z"/>
<path d="M3338 3823 c25 -24 63 -46 69 -40 5 6 -67 57 -79 57 -5 0 0 -8 10
-17z"/>
<path d="M6655 3801 c-17 -7 -16 -9 9 -15 16 -4 31 -5 34 -1 3 3 -3 5 -14 6
-18 0 -18 1 1 9 25 11 -2 12 -30 1z"/>
<path d="M6570 3770 c-44 -18 -44 -19 -14 -19 17 -1 37 6 44 14 7 9 19 14 27
11 8 -3 11 -1 8 4 -8 12 -10 12 -65 -10z"/>
<path d="M5171 3738 c1 -37 2 -39 9 -18 12 36 12 60 0 60 -5 0 -10 -19 -9 -42z"/>
<path d="M3347 3763 c-13 -13 -7 -44 11 -50 9 -4 20 -11 23 -16 4 -6 15 -4 28
5 21 15 21 15 -11 41 -34 28 -41 31 -51 20z"/>
<path d="M3425 3680 c28 -12 37 -12 30 0 -3 6 -16 10 -28 9 -21 0 -21 -1 -2
-9z"/>
<path d="M3375 3669 c-11 -17 1 -21 15 -4 8 9 8 15 2 15 -6 0 -14 -5 -17 -11z"/>
<path d="M3475 3670 c3 -5 11 -10 16 -10 6 0 7 5 4 10 -3 6 -11 10 -16 10 -6
0 -7 -4 -4 -10z"/>
<path d="M3745 3670 c3 -5 12 -7 20 -3 21 7 19 13 -6 13 -11 0 -18 -4 -14 -10z"/>
<path d="M3416 3645 c-11 -8 -17 -18 -13 -21 8 -9 67 18 61 28 -8 12 -27 9
-48 -7z"/>
<path d="M3480 3628 c-15 -6 -20 -12 -12 -15 6 -3 10 -9 6 -14 -6 -11 -2 -11
20 -3 9 3 13 10 10 15 -3 5 0 9 5 9 6 0 11 5 11 10 0 12 -8 12 -40 -2z"/>
<path d="M3602 3588 c2 -7 -3 -12 -9 -10 -7 1 -13 -5 -13 -13 0 -13 4 -14 21
-5 11 7 23 9 27 6 3 -3 1 -6 -5 -6 -6 0 -13 -7 -17 -15 -4 -13 -2 -14 14 -5
14 8 26 7 43 -1 21 -11 21 -11 -3 16 -31 34 -61 51 -58 33z"/>
<path d="M3626 3524 c-4 -11 1 -22 14 -31 11 -8 20 -21 20 -29 0 -8 7 -14 15
-14 30 0 -5 88 -36 90 -4 0 -10 -7 -13 -16z"/>
<path d="M3560 3510 c0 -5 5 -10 11 -10 5 0 7 5 4 10 -3 6 -8 10 -11 10 -2 0
-4 -4 -4 -10z"/>
<path d="M1695 3403 l0 -77 80 -65 c44 -35 81 -72 83 -82 2 -10 15 -20 30 -24
15 -3 42 -19 61 -35 18 -17 37 -30 42 -30 5 0 6 -6 3 -14 -4 -10 0 -13 13 -10
14 4 22 -3 31 -30 9 -25 20 -36 33 -36 23 0 25 13 4 34 -25 25 -17 34 40 46
32 7 55 17 55 24 0 14 -94 106 -108 106 -5 0 -26 18 -48 40 -21 22 -42 40 -46
40 -4 0 -45 30 -90 66 -45 36 -99 74 -119 85 -21 10 -40 23 -44 29 -15 24 -20
5 -20 -67z"/>
<path d="M3751 3454 c0 -11 3 -14 6 -6 3 7 2 16 -1 19 -3 4 -6 -2 -5 -13z"/>
<path d="M3701 3441 c-8 -6 -9 -11 -3 -15 6 -3 14 -1 17 5 9 14 2 20 -14 10z"/>
<path d="M3665 3431 c-3 -5 -2 -12 3 -15 5 -3 9 1 9 9 0 17 -3 19 -12 6z"/>
<path d="M3790 3418 c0 -5 -7 -8 -15 -8 -8 0 -15 -5 -15 -11 0 -5 5 -7 10 -4
6 4 16 2 23 -3 15 -11 67 -26 84 -23 7 1 23 -3 35 -9 23 -11 23 -11 -1 10 -17
15 -27 17 -36 10 -8 -7 -15 -7 -19 -1 -3 5 0 12 6 14 8 3 5 6 -6 6 -10 1 -16
6 -13 14 3 8 -5 12 -24 12 -16 0 -29 -3 -29 -7z"/>
<path d="M3792 3361 c-11 -6 -10 -10 4 -15 9 -3 19 -4 22 -1 3 3 0 5 -7 5 -7
0 -9 5 -6 10 7 12 4 12 -13 1z"/>
<path d="M3965 3320 c3 -5 8 -10 11 -10 2 0 4 5 4 10 0 6 -5 10 -11 10 -5 0
-7 -4 -4 -10z"/>
<path d="M4021 3274 c0 -11 3 -14 6 -6 3 7 2 16 -1 19 -3 4 -6 -2 -5 -13z"/>
<path d="M3960 3251 c0 -5 6 -14 14 -20 16 -13 32 2 21 19 -8 12 -35 13 -35 1z"/>
<path d="M4025 3230 c3 -5 15 -10 25 -10 10 0 22 5 25 10 4 6 -7 10 -25 10
-18 0 -29 -4 -25 -10z"/>
<path d="M4103 3204 c15 -8 27 -22 27 -30 0 -12 6 -15 25 -10 18 5 23 3 19 -7
-3 -8 6 -18 22 -26 19 -8 25 -17 21 -31 -5 -20 9 -38 20 -26 3 3 7 17 8 31 3
19 -5 32 -30 51 -18 13 -42 27 -54 29 -11 2 -31 11 -43 19 -12 9 -27 16 -33
16 -5 -1 2 -8 18 -16z m123 -71 c-6 -6 -36 9 -36 18 0 5 9 4 20 -3 10 -7 18
-14 16 -15z"/>
<path d="M8071 3111 c-8 -5 -9 -11 -3 -15 5 -3 12 1 16 9 6 17 6 18 -13 6z"/>
<path d="M4888 3103 c7 -3 16 -2 19 1 4 3 -2 6 -13 5 -11 0 -14 -3 -6 -6z"/>
<path d="M4833 3090 c-24 -10 -30 -25 -13 -35 6 -3 10 -1 10 6 0 7 8 9 21 6
11 -3 27 -3 35 0 12 4 11 8 -3 19 -21 16 -21 16 -50 4z m42 -18 c-3 -3 -11 0
-18 7 -9 10 -8 11 6 5 10 -3 15 -9 12 -12z"/>
<path d="M4254 3079 c-3 -5 1 -9 10 -9 8 0 16 -6 19 -12 3 -9 8 -10 15 -3 8 7
4 14 -13 22 -15 6 -27 7 -31 2z"/>
<path d="M4898 3053 c6 -2 18 -2 25 0 6 3 1 5 -13 5 -14 0 -19 -2 -12 -5z"/>
<path d="M4845 3040 c3 -5 8 -10 11 -10 2 0 4 5 4 10 0 6 -5 10 -11 10 -5 0
-7 -4 -4 -10z"/>
<path d="M4616 2995 c-19 -14 -19 -15 8 -15 15 0 25 4 22 9 -4 5 0 12 6 14 9
4 8 6 -2 6 -8 0 -24 -6 -34 -14z"/>
<path d="M4850 2994 c0 -8 5 -12 10 -9 6 4 8 11 5 16 -9 14 -15 11 -15 -7z"/>
<path d="M4400 2991 c0 -10 19 -25 25 -20 1 2 -3 10 -11 17 -8 7 -14 8 -14 3z"/>
<path d="M4615 2960 c3 -5 10 -10 16 -10 5 0 9 5 9 10 0 6 -7 10 -16 10 -8 0
-12 -4 -9 -10z"/>
<path d="M4765 2960 c3 -5 8 -10 11 -10 2 0 4 5 4 10 0 6 -5 10 -11 10 -5 0
-7 -4 -4 -10z"/>
<path d="M2140 2955 c0 -2 5 -16 12 -30 8 -18 14 -22 19 -13 6 10 12 7 24 -9
9 -13 26 -23 37 -23 20 0 21 1 3 20 -10 11 -24 20 -31 20 -7 0 -16 9 -19 20
-5 17 -45 30 -45 15z"/>
<path d="M4479 2928 c4 -28 6 -29 9 -9 2 13 0 27 -5 32 -6 6 -7 -3 -4 -23z"/>
<path d="M2274 2835 c21 -19 43 -32 49 -28 7 3 9 3 6 -1 -4 -4 9 -25 29 -47
26 -28 41 -38 56 -34 12 3 15 2 9 -1 -16 -7 13 -54 33 -54 8 0 14 -7 14 -16 0
-14 2 -15 17 -3 14 12 16 12 8 0 -6 -11 -4 -13 7 -9 8 4 15 1 16 -5 0 -7 4
-22 7 -34 5 -15 3 -23 -4 -23 -6 0 -11 -8 -11 -17 1 -17 2 -17 15 1 8 10 20
16 28 13 8 -3 19 -1 25 5 8 8 14 4 21 -15 6 -15 17 -27 25 -27 7 0 16 -7 20
-15 3 -8 12 -15 20 -15 21 0 30 -33 12 -46 -9 -6 -16 -16 -16 -21 0 -6 -9 -13
-21 -16 -12 -3 -18 -10 -14 -16 4 -8 11 -6 21 4 9 8 22 15 31 15 13 0 13 -3 3
-15 -18 -22 5 -45 45 -45 32 0 56 25 32 33 -6 2 -3 6 7 10 11 5 15 3 10 -5 -5
-8 -2 -9 9 -5 12 5 17 1 17 -13 0 -11 4 -20 9 -20 5 0 28 -20 52 -45 24 -25
49 -45 56 -45 7 0 17 -9 23 -20 8 -14 8 -20 0 -20 -6 0 -8 -4 -5 -10 10 -15
23 -12 29 8 3 9 3 1 1 -18 -4 -27 0 -39 14 -50 16 -11 18 -18 10 -33 -13 -23
-7 -30 31 -32 26 -2 30 1 24 19 -3 12 -13 27 -22 34 -14 10 -12 12 13 12 15 0
25 -3 22 -7 -4 -3 3 -18 15 -31 16 -17 19 -26 11 -29 -20 -7 -15 -21 9 -29 28
-9 43 -24 52 -52 7 -22 36 -31 36 -11 0 5 5 7 10 4 6 -4 17 -2 24 4 10 9 24 0
59 -36 33 -34 43 -50 34 -56 -8 -6 -5 -7 7 -3 12 4 24 0 32 -11 20 -26 17 -30
-16 -25 -17 2 -30 10 -30 18 0 8 -6 14 -12 14 -10 0 -9 3 1 9 11 7 10 11 -7
20 -32 17 -40 13 -34 -16 6 -33 21 -55 33 -47 5 3 9 -2 9 -10 0 -17 29 -28 76
-28 37 0 55 -14 30 -24 -23 -9 -20 -34 4 -34 11 0 20 5 20 10 0 6 7 10 16 10
11 0 14 -6 9 -22 -5 -18 -4 -20 4 -8 9 12 13 12 19 2 5 -7 17 -10 28 -6 16 5
16 4 4 -5 -10 -7 -11 -11 -2 -11 6 0 21 -9 32 -20 26 -26 14 -25 -30 2 -40 25
-72 31 -82 15 -9 -15 23 -44 53 -49 13 -1 29 -14 36 -28 7 -13 19 -30 28 -36
9 -7 20 -25 24 -41 6 -21 13 -27 29 -26 15 2 26 -6 38 -28 11 -23 21 -30 35
-26 15 4 19 0 19 -23 0 -38 50 -76 122 -96 29 -7 54 -14 56 -14 1 0 2 9 2 19
0 15 11 22 50 30 28 6 60 11 71 11 34 0 99 24 99 37 0 7 12 13 28 13 15 0 45
11 67 24 33 20 48 23 92 19 52 -6 53 -5 64 26 12 34 24 40 33 14 5 -12 10 -13
18 -5 7 7 19 7 33 2 26 -10 65 -3 65 12 0 5 5 6 10 3 6 -4 26 3 46 15 19 12
43 20 54 17 11 -3 26 3 35 13 9 10 24 16 36 13 10 -3 19 -1 19 5 0 14 63 42
94 42 14 0 26 5 26 10 0 6 11 10 25 10 15 0 29 8 36 22 l12 22 8 -22 c7 -17
16 -22 44 -22 19 0 35 5 35 10 0 6 10 10 23 10 13 0 33 9 45 20 16 15 27 18
39 12 28 -14 65 -9 98 13 19 13 56 23 105 27 105 10 144 19 153 34 4 7 32 18
62 24 30 6 55 15 55 20 0 4 27 11 60 15 33 4 67 13 75 21 7 8 30 14 49 14 20
0 36 4 36 8 0 9 77 26 195 43 51 8 88 19 101 30 11 11 29 19 40 19 36 0 64 12
64 28 0 13 3 13 19 -2 20 -18 47 -13 35 6 -4 6 -3 8 3 5 5 -3 17 3 26 14 19
22 74 22 101 0 13 -11 21 -9 46 12 16 14 43 28 60 32 16 4 30 10 30 14 0 4 14
5 32 3 21 -3 35 0 43 12 15 20 85 50 85 36 0 -5 9 -10 20 -10 11 0 20 5 20 11
0 5 12 9 28 8 43 -3 64 0 57 10 -9 15 32 23 56 10 33 -17 139 7 139 32 0 22 1
23 35 7 19 -9 28 -9 37 0 7 7 29 12 50 12 21 0 38 5 38 10 0 6 19 10 43 10 25
0 56 8 77 22 27 16 50 21 98 20 48 -1 64 3 69 14 5 12 16 14 55 9 45 -6 50 -5
55 14 4 17 13 21 44 21 28 0 39 4 39 15 0 8 5 15 11 15 19 0 50 -21 44 -31 -4
-5 1 -9 9 -9 10 0 16 9 16 23 0 26 1 26 98 27 34 0 62 4 62 9 0 5 35 12 78 16
43 4 84 10 90 13 16 11 20 138 5 135 -7 -2 -13 6 -13 17 0 13 7 20 19 20 11 0
23 5 26 10 4 6 -7 10 -24 10 -29 0 -57 -6 -181 -35 -30 -8 -113 -25 -185 -39
-138 -28 -194 -42 -235 -59 -14 -5 -47 -12 -75 -13 -27 -2 -93 -15 -145 -29
-52 -14 -129 -32 -170 -40 -41 -7 -93 -18 -115 -24 -22 -5 -71 -17 -110 -26
-38 -8 -151 -36 -251 -60 -99 -25 -201 -49 -225 -54 -24 -6 -87 -19 -139 -30
-52 -12 -111 -27 -130 -35 -19 -8 -64 -20 -100 -26 -36 -6 -92 -20 -125 -30
-112 -35 -236 -62 -261 -57 -13 2 -27 0 -30 -5 -3 -5 -12 -7 -19 -4 -8 3 -24
-3 -37 -13 -13 -10 -68 -28 -123 -40 -96 -21 -137 -33 -180 -52 -26 -11 -188
-49 -209 -49 -9 0 -16 -4 -16 -9 0 -5 -23 -11 -50 -15 -32 -4 -53 -13 -57 -22
-3 -9 -13 -14 -24 -11 -10 3 -38 1 -61 -5 -24 -5 -52 -11 -62 -14 -11 -2 -22
-8 -25 -12 -3 -5 -19 -12 -36 -15 -45 -8 -337 -86 -360 -96 -11 -5 -49 -17
-85 -26 -36 -9 -92 -26 -125 -36 -33 -11 -80 -24 -105 -30 -78 -16 -130 -33
-130 -41 0 -4 -12 -8 -26 -8 -14 0 -35 -5 -47 -11 -18 -10 -24 -8 -43 15 -13
14 -26 26 -30 26 -4 0 -19 11 -33 24 -14 14 -75 69 -136 122 -60 54 -128 115
-150 135 -22 21 -70 64 -107 95 -38 31 -68 61 -68 66 0 5 -10 7 -22 4 -13 -3
-18 -3 -11 0 8 4 6 11 -8 25 -11 11 -24 17 -29 14 -5 -3 -7 0 -4 8 8 22 -62
61 -103 59 -19 -2 -33 2 -33 8 0 7 8 9 20 5 11 -3 20 -2 20 3 0 18 -148 152
-167 152 -6 0 -15 8 -18 18 -10 25 -99 102 -125 107 -13 2 -25 7 -29 11 -3 4
3 4 13 0 16 -5 17 -4 6 9 -7 8 -16 13 -20 10 -4 -3 -10 2 -13 9 -3 8 -48 49
-99 91 -51 43 -100 85 -108 95 -8 9 -41 38 -74 64 -110 89 -197 132 -122 61z
m5583 -231 c-3 -3 -12 -4 -19 -1 -8 3 -5 6 6 6 11 1 17 -2 13 -5z m-5127 -165
c0 -5 -4 -9 -10 -9 -5 0 -10 7 -10 16 0 8 5 12 10 9 6 -3 10 -10 10 -16z
m4145 -59 c3 -5 1 -10 -4 -10 -6 0 -11 5 -11 10 0 6 2 10 4 10 3 0 8 -4 11
-10z m-105 -20 c0 -5 -7 -10 -16 -10 -8 0 -12 5 -9 10 3 6 10 10 16 10 5 0 9
-4 9 -10z m-163 -36 c-3 -3 -12 -4 -19 -1 -8 3 -5 6 6 6 11 1 17 -2 13 -5z
m-134 -41 c-7 -2 -21 -2 -30 0 -10 3 -4 5 12 5 17 0 24 -2 18 -5z m-338 -73
c3 -5 -3 -10 -14 -10 -12 0 -21 5 -21 10 0 6 6 10 14 10 8 0 18 -4 21 -10z
m-298 -86 c-3 -3 -12 -4 -19 -1 -8 3 -5 6 6 6 11 1 17 -2 13 -5z m-107 -24
c11 -7 5 -8 -20 -4 -24 4 -31 3 -21 -4 17 -13 -1 -23 -19 -11 -13 8 -13 10 0
19 19 12 41 12 60 0z m-243 -66 c-3 -3 -12 -4 -19 -1 -8 3 -5 6 6 6 11 1 17
-2 13 -5z m-257 -64 c-19 -13 -30 -13 -30 0 0 6 10 10 23 10 18 0 19 -2 7 -10z
m-286 -69 c7 -10 -17 -21 -45 -21 -10 0 -19 7 -19 15 0 17 55 22 64 6z m-79
-21 c-3 -5 -12 -10 -18 -10 -7 0 -6 4 3 10 19 12 23 12 15 0z m-1485 -15 c-7
-9 -15 -13 -19 -10 -3 3 1 10 9 15 21 14 24 12 10 -5z m1108 -120 c-3 -3 -9 2
-12 12 -6 14 -5 15 5 6 7 -7 10 -15 7 -18z m-911 -61 c-3 -3 -12 -4 -19 -1 -8
3 -5 6 6 6 11 1 17 -2 13 -5z m30 -36 c-5 -16 -2 -19 14 -15 10 3 19 1 19 -4
0 -8 -15 -13 -32 -10 -5 0 -8 -3 -8 -9 0 -5 -7 -10 -15 -10 -19 0 -21 66 -2
73 19 7 29 -3 24 -25z"/>
<path d="M2346 2741 c-4 -7 -5 -15 -2 -18 9 -9 19 4 14 18 -4 11 -6 11 -12 0z"/>
<path d="M2430 2642 c0 -5 7 -17 15 -28 14 -19 14 -19 15 2 0 12 -7 24 -15 28
-8 3 -15 2 -15 -2z"/>
<path d="M2480 2600 c0 -5 5 -10 11 -10 5 0 7 5 4 10 -3 6 -8 10 -11 10 -2 0
-4 -4 -4 -10z"/>
<path d="M2808 2323 c6 -2 12 -9 12 -14 0 -5 7 -21 16 -35 16 -23 17 -23 31
-7 13 16 14 16 9 1 -3 -9 2 -19 10 -22 44 -17 46 8 4 32 -16 9 -30 22 -30 28
0 13 -23 24 -48 23 -11 0 -12 -2 -4 -6z"/>
<path d="M5800 2310 c-13 -8 -12 -10 3 -10 9 0 17 5 17 10 0 12 -1 12 -20 0z"/>
<path d="M9733 2265 c0 -33 2 -45 4 -27 2 18 2 45 0 60 -2 15 -4 0 -4 -33z"/>
<path d="M5690 2290 c-19 -4 -55 -14 -80 -23 -25 -9 -55 -17 -68 -17 -30 0
-64 -18 -57 -31 4 -5 15 -9 26 -9 10 0 19 -4 19 -10 0 -5 -9 -10 -19 -10 -27
0 -35 -17 -14 -28 28 -14 68 1 71 26 3 18 9 22 35 21 57 -3 77 1 77 15 0 7 15
18 33 24 l32 10 -34 1 c-43 1 -36 9 26 26 38 10 42 13 18 13 -16 0 -46 -4 -65
-8z m-70 -34 c0 -2 -7 -7 -16 -10 -8 -3 -12 -2 -9 4 6 10 25 14 25 6z"/>
<path d="M5340 2195 c-49 -19 -7 -19 45 0 31 11 34 14 15 14 -14 0 -41 -7 -60
-14z"/>
<path d="M5238 2163 c7 -3 16 -2 19 1 4 3 -2 6 -13 5 -11 0 -14 -3 -6 -6z"/>
<path d="M5000 2100 c-13 -8 -13 -10 2 -10 9 0 20 5 23 10 8 13 -5 13 -25 0z"/>
<path d="M4938 2083 c7 -3 16 -2 19 1 4 3 -2 6 -13 5 -11 0 -14 -3 -6 -6z"/>
<path d="M4850 2063 c-14 -7 -18 -13 -10 -13 17 0 47 17 40 23 -3 2 -16 -2
-30 -10z"/>
<path d="M9712 2050 c0 -19 2 -27 5 -17 2 9 2 25 0 35 -3 9 -5 1 -5 -18z"/>
<path d="M4715 2030 c-114 -35 -317 -90 -333 -90 -10 -1 -27 -6 -40 -13 -22
-13 -22 -14 -5 -29 10 -9 39 -26 65 -38 44 -20 49 -21 70 -6 12 9 32 16 45 16
12 0 34 12 48 26 19 19 32 24 51 20 21 -6 24 -3 24 19 0 14 3 25 8 26 4 0 23
2 42 3 19 1 46 8 59 15 l24 14 -29 13 -29 14 43 -4 c30 -3 42 0 42 9 0 7 6 16
13 18 33 14 -46 4 -98 -13z"/>
<path d="M9686 1929 c-4 -23 -5 -44 -2 -46 2 -2 7 14 11 37 4 23 5 43 2 46 -2
3 -7 -14 -11 -37z"/>
<path d="M9650 1793 c-12 -43 -31 -97 -41 -120 -11 -23 -19 -48 -19 -55 0 -7
-13 -35 -28 -63 -16 -27 -46 -81 -67 -120 -96 -174 -276 -388 -420 -500 -179
-140 -300 -210 -500 -288 -176 -70 -251 -89 -460 -120 -123 -18 -5937 -17
-6053 1 -206 33 -397 93 -576 183 -265 134 -415 256 -625 509 -93 111 -237
376 -281 518 -13 40 -25 70 -27 68 -6 -6 32 -125 57 -181 105 -234 189 -370
319 -515 88 -99 97 -108 177 -176 90 -78 203 -158 264 -189 30 -15 62 -33 70
-40 14 -11 195 -89 280 -120 77 -29 148 -47 279 -73 l136 -26 2825 -3 c1764
-2 2893 1 3005 7 233 13 375 39 565 106 128 45 355 160 428 217 29 23 65 50
80 59 77 50 269 248 363 375 105 143 241 434 274 591 12 59 -2 33 -25 -45z"/>
</g>
</svg>
